<?xml version="1.0" encoding="UTF-8"?><svg id="a" xmlns="http://www.w3.org/2000/svg" viewBox="0 0 250.34 155.7"><defs><style>.b{font-family:BaucherGotURWExt-Bol, Baucher Gothic URW Extd;font-size:81.44px;isolation:isolate;}.b,.c{fill:#fff;}.d{letter-spacing:0em;}.e{fill:#5dba47;}.f{fill:none;stroke:#fff;stroke-miterlimit:10;stroke-width:2px;}.c{fill-rule:evenodd;}</style></defs><path class="c" d="M114.46,129.05h-33.9c-.72,0-1.3-.58-1.3-1.3V49.52c0-.47,.26-.91,.67-1.14s.92-.22,1.32,.03l34.69,21.59-.17,57.75c-.01,.72-.59,1.3-1.31,1.3h0Zm-32.6-2.6h31.29v-55.33l-31.29-19.25V126.45Z"/><path class="f" d="M38.05,43.22h-4.61c-.64,0-1.15-.52-1.15-1.15v-4.61c0-.64,.52-1.15,1.15-1.15h4.61c.64,0,1.15,.52,1.15,1.15v4.61c0,.63-.51,1.15-1.15,1.15h0Z"/><path class="f" d="M49.57,43.22h-6.91c-.64,0-1.15-.52-1.15-1.15v-4.61c0-.64,.52-1.15,1.15-1.15h6.91c.64,0,1.15,.52,1.15,1.15v4.61c0,.63-.51,1.15-1.15,1.15h0Z"/><path class="f" d="M58.79,43.22h-4.61c-.64,0-1.15-.52-1.15-1.15v-4.61c0-.64,.52-1.15,1.15-1.15h4.61c.64,0,1.15,.52,1.15,1.15v4.61c0,.63-.51,1.15-1.15,1.15h0Z"/><path class="f" d="M70.31,43.22h-6.91c-.64,0-1.15-.52-1.15-1.15v-4.61c0-.64,.52-1.15,1.15-1.15h6.91c.64,0,1.15,.52,1.15,1.15v4.61c0,.63-.51,1.15-1.15,1.15h0Z"/><path class="f" d="M38.05,53.59h-4.61c-.64,0-1.15-.52-1.15-1.15v-4.61c0-.64,.52-1.15,1.15-1.15h4.61c.64,0,1.15,.52,1.15,1.15v4.61c0,.63-.51,1.15-1.15,1.15h0Z"/><path class="f" d="M49.57,53.59h-6.91c-.64,0-1.15-.52-1.15-1.15v-4.61c0-.64,.52-1.15,1.15-1.15h6.91c.64,0,1.15,.52,1.15,1.15v4.61c0,.63-.51,1.15-1.15,1.15h0Z"/><path class="f" d="M58.79,53.59h-4.61c-.64,0-1.15-.52-1.15-1.15v-4.61c0-.64,.52-1.15,1.15-1.15h4.61c.64,0,1.15,.52,1.15,1.15v4.61c0,.63-.51,1.15-1.15,1.15h0Z"/><path class="f" d="M70.31,53.59h-6.91c-.64,0-1.15-.52-1.15-1.15v-4.61c0-.64,.52-1.15,1.15-1.15h6.91c.64,0,1.15,.52,1.15,1.15v4.61c0,.63-.51,1.15-1.15,1.15h0Z"/><path class="c" d="M67.52,27.46H32.32v-10.43h36.51v9.13c0,.71-.59,1.3-1.31,1.3h0Zm-32.59-2.61h31.29v-5.21h-31.29v5.21Z"/><path class="c" d="M80.56,126.54H23.19c-.72,0-1.3-.58-1.3-1.3V24.85h59.97V125.24c0,.72-.58,1.3-1.3,1.3h0Zm-56.06-2.6h54.76V27.46H24.5V123.94Z"/><rect class="e" x="14.07" y="123.94" width="175.09" height="13.04"/><text class="b" transform="translate(84.92 123.93)"><tspan x="0" y="0">A</tspan><tspan class="d" x="26.96" y="0">P</tspan><tspan x="53.67" y="0">AH</tspan></text><g><path class="f" d="M38.05,63.95h-4.61c-.64,0-1.15-.52-1.15-1.15v-4.61c0-.64,.52-1.15,1.15-1.15h4.61c.64,0,1.15,.52,1.15,1.15v4.61c0,.64-.51,1.15-1.15,1.15h0Z"/><path class="f" d="M49.57,63.95h-6.91c-.64,0-1.15-.52-1.15-1.15v-4.61c0-.64,.52-1.15,1.15-1.15h6.91c.64,0,1.15,.52,1.15,1.15v4.61c0,.64-.51,1.15-1.15,1.15h0Z"/><path class="f" d="M58.79,63.95h-4.61c-.64,0-1.15-.52-1.15-1.15v-4.61c0-.64,.52-1.15,1.15-1.15h4.61c.64,0,1.15,.52,1.15,1.15v4.61c0,.64-.51,1.15-1.15,1.15h0Z"/><path class="f" d="M70.31,63.95h-6.91c-.64,0-1.15-.52-1.15-1.15v-4.61c0-.64,.52-1.15,1.15-1.15h6.91c.64,0,1.15,.52,1.15,1.15v4.61c0,.64-.51,1.15-1.15,1.15h0Z"/></g><g><path class="f" d="M38.05,84.69h-4.61c-.64,0-1.15-.52-1.15-1.15v-4.61c0-.64,.52-1.15,1.15-1.15h4.61c.64,0,1.15,.52,1.15,1.15v4.61c0,.64-.51,1.15-1.15,1.15h0Z"/><path class="f" d="M49.57,84.69h-6.91c-.64,0-1.15-.52-1.15-1.15v-4.61c0-.64,.52-1.15,1.15-1.15h6.91c.64,0,1.15,.52,1.15,1.15v4.61c0,.64-.51,1.15-1.15,1.15h0Z"/><path class="f" d="M58.79,84.69h-4.61c-.64,0-1.15-.52-1.15-1.15v-4.61c0-.64,.52-1.15,1.15-1.15h4.61c.64,0,1.15,.52,1.15,1.15v4.61c0,.64-.51,1.15-1.15,1.15h0Z"/><path class="f" d="M70.31,84.69h-6.91c-.64,0-1.15-.52-1.15-1.15v-4.61c0-.64,.52-1.15,1.15-1.15h6.91c.64,0,1.15,.52,1.15,1.15v4.61c0,.64-.51,1.15-1.15,1.15h0Z"/></g><g><path class="f" d="M38.05,74.32h-4.61c-.64,0-1.15-.52-1.15-1.15v-4.61c0-.64,.52-1.15,1.15-1.15h4.61c.64,0,1.15,.52,1.15,1.15v4.61c0,.64-.51,1.15-1.15,1.15h0Z"/><path class="f" d="M49.57,74.32h-6.91c-.64,0-1.15-.52-1.15-1.15v-4.61c0-.64,.52-1.15,1.15-1.15h6.91c.64,0,1.15,.52,1.15,1.15v4.61c0,.64-.51,1.15-1.15,1.15h0Z"/><path class="f" d="M58.79,74.32h-4.61c-.64,0-1.15-.52-1.15-1.15v-4.61c0-.64,.52-1.15,1.15-1.15h4.61c.64,0,1.15,.52,1.15,1.15v4.61c0,.64-.51,1.15-1.15,1.15h0Z"/><path class="f" d="M70.31,74.32h-6.91c-.64,0-1.15-.52-1.15-1.15v-4.61c0-.64,.52-1.15,1.15-1.15h6.91c.64,0,1.15,.52,1.15,1.15v4.61c0,.64-.51,1.15-1.15,1.15h0Z"/></g><g><path class="f" d="M38.05,105.43h-4.61c-.64,0-1.15-.52-1.15-1.15v-4.61c0-.64,.52-1.15,1.15-1.15h4.61c.64,0,1.15,.52,1.15,1.15v4.61c0,.63-.51,1.15-1.15,1.15h0Z"/><path class="f" d="M49.57,105.43h-6.91c-.64,0-1.15-.52-1.15-1.15v-4.61c0-.64,.52-1.15,1.15-1.15h6.91c.64,0,1.15,.52,1.15,1.15v4.61c0,.63-.51,1.15-1.15,1.15h0Z"/><path class="f" d="M58.79,105.43h-4.61c-.64,0-1.15-.52-1.15-1.15v-4.61c0-.64,.52-1.15,1.15-1.15h4.61c.64,0,1.15,.52,1.15,1.15v4.61c0,.63-.51,1.15-1.15,1.15h0Z"/><path class="f" d="M70.31,105.43h-6.91c-.64,0-1.15-.52-1.15-1.15v-4.61c0-.64,.52-1.15,1.15-1.15h6.91c.64,0,1.15,.52,1.15,1.15v4.61c0,.63-.51,1.15-1.15,1.15h0Z"/></g><g><path class="f" d="M38.05,95.06h-4.61c-.64,0-1.15-.52-1.15-1.15v-4.61c0-.64,.52-1.15,1.15-1.15h4.61c.64,0,1.15,.52,1.15,1.15v4.61c0,.63-.51,1.15-1.15,1.15h0Z"/><path class="f" d="M49.57,95.06h-6.91c-.64,0-1.15-.52-1.15-1.15v-4.61c0-.64,.52-1.15,1.15-1.15h6.91c.64,0,1.15,.52,1.15,1.15v4.61c0,.63-.51,1.15-1.15,1.15h0Z"/><path class="f" d="M58.79,95.06h-4.61c-.64,0-1.15-.52-1.15-1.15v-4.61c0-.64,.52-1.15,1.15-1.15h4.61c.64,0,1.15,.52,1.15,1.15v4.61c0,.63-.51,1.15-1.15,1.15h0Z"/><path class="f" d="M70.31,95.06h-6.91c-.64,0-1.15-.52-1.15-1.15v-4.61c0-.64,.52-1.15,1.15-1.15h6.91c.64,0,1.15,.52,1.15,1.15v4.61c0,.63-.51,1.15-1.15,1.15h0Z"/></g></svg>