<?xml version="1.0" encoding="UTF-8"?><svg id="a" xmlns="http://www.w3.org/2000/svg" viewBox="0 0 178.43 126.45"><defs><style>.b{font-family:BaucherGotURWExt-Bol, Baucher Gothic URW Extd;font-size:81.44px;isolation:isolate;}.b,.c{fill:#fff;}.d{letter-spacing:0em;}.e{fill:#5dba47;}.f{fill:none;stroke:#fff;stroke-miterlimit:10;stroke-width:2px;}.c{fill-rule:evenodd;}</style></defs><path class="c" d="M100.39,112.02h-33.9c-.72,0-1.3-.58-1.3-1.3V32.49c0-.47,.26-.91,.67-1.14s.92-.22,1.32,.03l34.69,21.59-.17,57.75c-.01,.72-.59,1.3-1.31,1.3h0Zm-32.6-2.6h31.29V54.09l-31.29-19.25V109.42Z"/><path class="f" d="M23.98,26.19h-4.61c-.64,0-1.15-.52-1.15-1.15v-4.61c0-.64,.52-1.15,1.15-1.15h4.61c.64,0,1.15,.52,1.15,1.15v4.61c0,.63-.51,1.15-1.15,1.15h0Z"/><path class="f" d="M35.5,26.19h-6.91c-.64,0-1.15-.52-1.15-1.15v-4.61c0-.64,.52-1.15,1.15-1.15h6.91c.64,0,1.15,.52,1.15,1.15v4.61c0,.63-.51,1.15-1.15,1.15h0Z"/><path class="f" d="M44.72,26.19h-4.61c-.64,0-1.15-.52-1.15-1.15v-4.61c0-.64,.52-1.15,1.15-1.15h4.61c.64,0,1.15,.52,1.15,1.15v4.61c0,.63-.51,1.15-1.15,1.15h0Z"/><path class="f" d="M56.24,26.19h-6.91c-.64,0-1.15-.52-1.15-1.15v-4.61c0-.64,.52-1.15,1.15-1.15h6.91c.64,0,1.15,.52,1.15,1.15v4.61c0,.63-.51,1.15-1.15,1.15h0Z"/><path class="f" d="M23.98,36.56h-4.61c-.64,0-1.15-.52-1.15-1.15v-4.61c0-.64,.52-1.15,1.15-1.15h4.61c.64,0,1.15,.52,1.15,1.15v4.61c0,.63-.51,1.15-1.15,1.15h0Z"/><path class="f" d="M35.5,36.56h-6.91c-.64,0-1.15-.52-1.15-1.15v-4.61c0-.64,.52-1.15,1.15-1.15h6.91c.64,0,1.15,.52,1.15,1.15v4.61c0,.63-.51,1.15-1.15,1.15h0Z"/><path class="f" d="M44.72,36.56h-4.61c-.64,0-1.15-.52-1.15-1.15v-4.61c0-.64,.52-1.15,1.15-1.15h4.61c.64,0,1.15,.52,1.15,1.15v4.61c0,.63-.51,1.15-1.15,1.15h0Z"/><path class="f" d="M56.24,36.56h-6.91c-.64,0-1.15-.52-1.15-1.15v-4.61c0-.64,.52-1.15,1.15-1.15h6.91c.64,0,1.15,.52,1.15,1.15v4.61c0,.63-.51,1.15-1.15,1.15h0Z"/><path class="c" d="M53.45,10.43H18.25V0H54.76V9.13c0,.71-.59,1.3-1.31,1.3h0ZM20.86,7.82h31.29V2.61H20.86V7.82Z"/><path class="c" d="M66.49,109.51H9.12c-.72,0-1.3-.58-1.3-1.3V7.82h59.97V108.21c0,.72-.58,1.3-1.3,1.3h0Zm-56.06-2.6h54.76V10.43H10.43V106.91Z"/><rect class="e" y="106.91" width="175.09" height="13.04"/><text class="b" transform="translate(70.84 106.91)"><tspan x="0" y="0">A</tspan><tspan class="d" x="26.96" y="0">P</tspan><tspan x="53.67" y="0">AH</tspan></text><g><path class="f" d="M23.98,46.92h-4.61c-.64,0-1.15-.52-1.15-1.15v-4.61c0-.64,.52-1.15,1.15-1.15h4.61c.64,0,1.15,.52,1.15,1.15v4.61c0,.64-.51,1.15-1.15,1.15h0Z"/><path class="f" d="M35.5,46.92h-6.91c-.64,0-1.15-.52-1.15-1.15v-4.61c0-.64,.52-1.15,1.15-1.15h6.91c.64,0,1.15,.52,1.15,1.15v4.61c0,.64-.51,1.15-1.15,1.15h0Z"/><path class="f" d="M44.72,46.92h-4.61c-.64,0-1.15-.52-1.15-1.15v-4.61c0-.64,.52-1.15,1.15-1.15h4.61c.64,0,1.15,.52,1.15,1.15v4.61c0,.64-.51,1.15-1.15,1.15h0Z"/><path class="f" d="M56.24,46.92h-6.91c-.64,0-1.15-.52-1.15-1.15v-4.61c0-.64,.52-1.15,1.15-1.15h6.91c.64,0,1.15,.52,1.15,1.15v4.61c0,.64-.51,1.15-1.15,1.15h0Z"/></g><g><path class="f" d="M23.98,67.66h-4.61c-.64,0-1.15-.52-1.15-1.15v-4.61c0-.64,.52-1.15,1.15-1.15h4.61c.64,0,1.15,.52,1.15,1.15v4.61c0,.64-.51,1.15-1.15,1.15h0Z"/><path class="f" d="M35.5,67.66h-6.91c-.64,0-1.15-.52-1.15-1.15v-4.61c0-.64,.52-1.15,1.15-1.15h6.91c.64,0,1.15,.52,1.15,1.15v4.61c0,.64-.51,1.15-1.15,1.15h0Z"/><path class="f" d="M44.72,67.66h-4.61c-.64,0-1.15-.52-1.15-1.15v-4.61c0-.64,.52-1.15,1.15-1.15h4.61c.64,0,1.15,.52,1.15,1.15v4.61c0,.64-.51,1.15-1.15,1.15h0Z"/><path class="f" d="M56.24,67.66h-6.91c-.64,0-1.15-.52-1.15-1.15v-4.61c0-.64,.52-1.15,1.15-1.15h6.91c.64,0,1.15,.52,1.15,1.15v4.61c0,.64-.51,1.15-1.15,1.15h0Z"/></g><g><path class="f" d="M23.98,57.29h-4.61c-.64,0-1.15-.52-1.15-1.15v-4.61c0-.64,.52-1.15,1.15-1.15h4.61c.64,0,1.15,.52,1.15,1.15v4.61c0,.64-.51,1.15-1.15,1.15h0Z"/><path class="f" d="M35.5,57.29h-6.91c-.64,0-1.15-.52-1.15-1.15v-4.61c0-.64,.52-1.15,1.15-1.15h6.91c.64,0,1.15,.52,1.15,1.15v4.61c0,.64-.51,1.15-1.15,1.15h0Z"/><path class="f" d="M44.72,57.29h-4.61c-.64,0-1.15-.52-1.15-1.15v-4.61c0-.64,.52-1.15,1.15-1.15h4.61c.64,0,1.15,.52,1.15,1.15v4.61c0,.64-.51,1.15-1.15,1.15h0Z"/><path class="f" d="M56.24,57.29h-6.91c-.64,0-1.15-.52-1.15-1.15v-4.61c0-.64,.52-1.15,1.15-1.15h6.91c.64,0,1.15,.52,1.15,1.15v4.61c0,.64-.51,1.15-1.15,1.15h0Z"/></g><g><path class="f" d="M23.98,88.4h-4.61c-.64,0-1.15-.52-1.15-1.15v-4.61c0-.64,.52-1.15,1.15-1.15h4.61c.64,0,1.15,.52,1.15,1.15v4.61c0,.63-.51,1.15-1.15,1.15h0Z"/><path class="f" d="M35.5,88.4h-6.91c-.64,0-1.15-.52-1.15-1.15v-4.61c0-.64,.52-1.15,1.15-1.15h6.91c.64,0,1.15,.52,1.15,1.15v4.61c0,.63-.51,1.15-1.15,1.15h0Z"/><path class="f" d="M44.72,88.4h-4.61c-.64,0-1.15-.52-1.15-1.15v-4.61c0-.64,.52-1.15,1.15-1.15h4.61c.64,0,1.15,.52,1.15,1.15v4.61c0,.63-.51,1.15-1.15,1.15h0Z"/><path class="f" d="M56.24,88.4h-6.91c-.64,0-1.15-.52-1.15-1.15v-4.61c0-.64,.52-1.15,1.15-1.15h6.91c.64,0,1.15,.52,1.15,1.15v4.61c0,.63-.51,1.15-1.15,1.15h0Z"/></g><g><path class="f" d="M23.98,78.03h-4.61c-.64,0-1.15-.52-1.15-1.15v-4.61c0-.64,.52-1.15,1.15-1.15h4.61c.64,0,1.15,.52,1.15,1.15v4.61c0,.63-.51,1.15-1.15,1.15h0Z"/><path class="f" d="M35.5,78.03h-6.91c-.64,0-1.15-.52-1.15-1.15v-4.61c0-.64,.52-1.15,1.15-1.15h6.91c.64,0,1.15,.52,1.15,1.15v4.61c0,.63-.51,1.15-1.15,1.15h0Z"/><path class="f" d="M44.72,78.03h-4.61c-.64,0-1.15-.52-1.15-1.15v-4.61c0-.64,.52-1.15,1.15-1.15h4.61c.64,0,1.15,.52,1.15,1.15v4.61c0,.63-.51,1.15-1.15,1.15h0Z"/><path class="f" d="M56.24,78.03h-6.91c-.64,0-1.15-.52-1.15-1.15v-4.61c0-.64,.52-1.15,1.15-1.15h6.91c.64,0,1.15,.52,1.15,1.15v4.61c0,.63-.51,1.15-1.15,1.15h0Z"/></g></svg>