<?xml version="1.0" encoding="utf-8"?>
<!-- Generator: Adobe Illustrator 26.1.0, SVG Export Plug-In . SVG Version: 6.00 Build 0)  -->
<svg version="1.1" id="Layer_1" xmlns="http://www.w3.org/2000/svg" xmlns:xlink="http://www.w3.org/1999/xlink" x="0px" y="0px"
	 viewBox="0 0 556.29 550.58" style="enable-background:new 0 0 556.29 550.58;" xml:space="preserve">
<style type="text/css">
	.st0{fill:#EDEDED;}
	.st1{fill:none;stroke:#CCCCCB;stroke-width:3;stroke-miterlimit:10;}
	.st2{fill:#CCCCCB;}
	.st3{fill-rule:evenodd;clip-rule:evenodd;}
	.st4{fill:none;}
	.st5{fill-rule:evenodd;clip-rule:evenodd;fill:none;stroke:#FFFFFF;stroke-width:4;stroke-miterlimit:10;}
	.st6{fill-rule:evenodd;clip-rule:evenodd;fill:#CCCCCB;}
	.st7{fill-rule:evenodd;clip-rule:evenodd;fill:none;stroke:#7B7B7B;stroke-width:3;stroke-miterlimit:10;}
	.st8{fill-rule:evenodd;clip-rule:evenodd;fill:#7B7B7B;}
	.st9{fill:none;stroke:#000000;stroke-width:3;stroke-miterlimit:10;}
	.st10{clip-path:url(#SVGID_00000106832184868847522810000014448660536002633611_);}
	.st11{clip-path:url(#SVGID_00000100367291932028600940000011831931836338948534_);}
	.st12{fill:none;stroke:#FFFFFF;stroke-width:3;stroke-miterlimit:10;}
	.st13{fill:#FFFFFF;}
	.st14{fill:#5E9D60;}
	.st15{fill-rule:evenodd;clip-rule:evenodd;fill:#FFFFFF;}
	.st16{fill-rule:evenodd;clip-rule:evenodd;fill:none;stroke:#FFFFFF;stroke-width:2;stroke-miterlimit:10;}
	.st17{fill-rule:evenodd;clip-rule:evenodd;fill:#5E9D60;}
	.st18{fill-rule:evenodd;clip-rule:evenodd;fill:#FFFFFF;stroke:#000000;stroke-miterlimit:10;}
	.st19{stroke:#000000;stroke-miterlimit:10;}
	.st20{fill:none;stroke:#7B7B7B;stroke-width:3;stroke-miterlimit:10;}
	.st21{fill-rule:evenodd;clip-rule:evenodd;fill:#5DBA47;}
	.st22{fill-rule:evenodd;clip-rule:evenodd;fill:#EDEDED;}
	.st23{fill:none;stroke:#CCCCCB;stroke-width:3;stroke-linecap:round;stroke-linejoin:round;stroke-miterlimit:10;}
	.st24{font-family:'BaucherGotURWExt-Bol';}
	.st25{font-size:106.5449px;}
	.st26{fill:none;stroke:#7B7B7B;stroke-width:5;stroke-miterlimit:10;}
	.st27{fill:#7B7B7B;}
</style>
<g>
	<g>
		<circle cx="277.33" cy="262.13" r="189.33"/>
		<g>
			<path class="st15" d="M292,325.97h-44.35c-0.94,0-1.71-0.76-1.71-1.71V221.93c0-0.62,0.33-1.19,0.87-1.49
				c0.54-0.3,1.2-0.29,1.73,0.04l45.38,28.25l-0.22,75.54C293.71,325.21,292.94,325.97,292,325.97L292,325.97z M249.36,322.56h40.94
				v-72.39l-40.94-25.19L249.36,322.56z"/>
			<path class="st16" d="M192.05,213.68h-6.03c-0.83,0-1.51-0.68-1.51-1.51v-6.03c0-0.83,0.68-1.51,1.51-1.51h6.03
				c0.83,0,1.51,0.67,1.51,1.51v6.03C193.55,213,192.88,213.68,192.05,213.68L192.05,213.68z"/>
			<path class="st16" d="M207.12,213.68h-9.04c-0.83,0-1.51-0.68-1.51-1.51v-6.03c0-0.83,0.68-1.51,1.51-1.51h9.04
				c0.83,0,1.51,0.67,1.51,1.51v6.03C208.63,213,207.95,213.68,207.12,213.68L207.12,213.68z"/>
			<path class="st16" d="M219.18,213.68h-6.03c-0.83,0-1.51-0.68-1.51-1.51v-6.03c0-0.83,0.68-1.51,1.51-1.51h6.03
				c0.83,0,1.51,0.67,1.51,1.51v6.03C220.68,213,220.01,213.68,219.18,213.68L219.18,213.68z"/>
			<path class="st16" d="M234.25,213.68h-9.04c-0.83,0-1.51-0.68-1.51-1.51v-6.03c0-0.83,0.68-1.51,1.51-1.51h9.04
				c0.83,0,1.51,0.67,1.51,1.51v6.03C235.75,213,235.08,213.68,234.25,213.68L234.25,213.68z"/>
			<path class="st16" d="M192.05,227.24h-6.03c-0.83,0-1.51-0.67-1.51-1.51v-6.03c0-0.83,0.68-1.51,1.51-1.51h6.03
				c0.83,0,1.51,0.67,1.51,1.51v6.03C193.55,226.57,192.88,227.24,192.05,227.24L192.05,227.24z"/>
			<path class="st16" d="M207.12,227.24h-9.04c-0.83,0-1.51-0.67-1.51-1.51v-6.03c0-0.83,0.68-1.51,1.51-1.51h9.04
				c0.83,0,1.51,0.67,1.51,1.51v6.03C208.63,226.57,207.95,227.24,207.12,227.24L207.12,227.24z"/>
			<path class="st16" d="M219.18,227.24h-6.03c-0.83,0-1.51-0.67-1.51-1.51v-6.03c0-0.83,0.68-1.51,1.51-1.51h6.03
				c0.83,0,1.51,0.67,1.51,1.51v6.03C220.68,226.57,220.01,227.24,219.18,227.24L219.18,227.24z"/>
			<path class="st16" d="M234.25,227.24h-9.04c-0.83,0-1.51-0.67-1.51-1.51v-6.03c0-0.83,0.68-1.51,1.51-1.51h9.04
				c0.83,0,1.51,0.67,1.51,1.51v6.03C235.75,226.57,235.08,227.24,234.25,227.24L234.25,227.24z"/>
			<path class="st15" d="M230.6,193.06h-46.05c0,0,0,0,0,0v-13.64h47.76v11.94C232.31,192.3,231.54,193.06,230.6,193.06
				L230.6,193.06z M187.96,189.65h40.93v-6.82h-40.93V189.65z"/>
			<path class="st15" d="M247.66,322.69h-75.05c-0.94,0-1.7-0.76-1.7-1.7V189.65h78.46v131.33
				C249.36,321.92,248.6,322.69,247.66,322.69L247.66,322.69z M174.32,319.28h71.64V193.06l-71.64,0V319.28z"/>
			<rect x="160.67" y="319.28" class="st21" width="229.06" height="17.06"/>
			<text transform="matrix(1 0 0 1 253.3518 319.277)" class="st13 st24 st25">APAH</text>
			<g>
				<path class="st16" d="M192.05,240.81h-6.03c-0.83,0-1.51-0.67-1.51-1.51v-6.03c0-0.83,0.68-1.51,1.51-1.51h6.03
					c0.83,0,1.51,0.67,1.51,1.51v6.03C193.55,240.13,192.88,240.81,192.05,240.81L192.05,240.81z"/>
				<path class="st16" d="M207.12,240.81h-9.04c-0.83,0-1.51-0.67-1.51-1.51v-6.03c0-0.83,0.68-1.51,1.51-1.51h9.04
					c0.83,0,1.51,0.67,1.51,1.51v6.03C208.63,240.13,207.95,240.81,207.12,240.81L207.12,240.81z"/>
				<path class="st16" d="M219.18,240.81h-6.03c-0.83,0-1.51-0.67-1.51-1.51v-6.03c0-0.83,0.68-1.51,1.51-1.51h6.03
					c0.83,0,1.51,0.67,1.51,1.51v6.03C220.68,240.13,220.01,240.81,219.18,240.81L219.18,240.81z"/>
				<path class="st16" d="M234.25,240.81h-9.04c-0.83,0-1.51-0.67-1.51-1.51v-6.03c0-0.83,0.68-1.51,1.51-1.51h9.04
					c0.83,0,1.51,0.67,1.51,1.51v6.03C235.75,240.13,235.08,240.81,234.25,240.81L234.25,240.81z"/>
			</g>
			<g>
				<path class="st16" d="M192.05,267.94h-6.03c-0.83,0-1.51-0.67-1.51-1.51v-6.03c0-0.83,0.68-1.51,1.51-1.51h6.03
					c0.83,0,1.51,0.67,1.51,1.51v6.03C193.55,267.26,192.88,267.94,192.05,267.94L192.05,267.94z"/>
				<path class="st16" d="M207.12,267.94h-9.04c-0.83,0-1.51-0.67-1.51-1.51v-6.03c0-0.83,0.68-1.51,1.51-1.51h9.04
					c0.83,0,1.51,0.67,1.51,1.51v6.03C208.63,267.26,207.95,267.94,207.12,267.94L207.12,267.94z"/>
				<path class="st16" d="M219.18,267.94h-6.03c-0.83,0-1.51-0.67-1.51-1.51v-6.03c0-0.83,0.68-1.51,1.51-1.51h6.03
					c0.83,0,1.51,0.67,1.51,1.51v6.03C220.68,267.26,220.01,267.94,219.18,267.94L219.18,267.94z"/>
				<path class="st16" d="M234.25,267.94h-9.04c-0.83,0-1.51-0.67-1.51-1.51v-6.03c0-0.83,0.68-1.51,1.51-1.51h9.04
					c0.83,0,1.51,0.67,1.51,1.51v6.03C235.75,267.26,235.08,267.94,234.25,267.94L234.25,267.94z"/>
			</g>
			<g>
				<path class="st16" d="M192.05,254.37h-6.03c-0.83,0-1.51-0.67-1.51-1.51v-6.03c0-0.83,0.68-1.51,1.51-1.51h6.03
					c0.83,0,1.51,0.67,1.51,1.51v6.03C193.55,253.7,192.88,254.37,192.05,254.37L192.05,254.37z"/>
				<path class="st16" d="M207.12,254.37h-9.04c-0.83,0-1.51-0.67-1.51-1.51v-6.03c0-0.83,0.68-1.51,1.51-1.51h9.04
					c0.83,0,1.51,0.67,1.51,1.51v6.03C208.63,253.7,207.95,254.37,207.12,254.37L207.12,254.37z"/>
				<path class="st16" d="M219.18,254.37h-6.03c-0.83,0-1.51-0.67-1.51-1.51v-6.03c0-0.83,0.68-1.51,1.51-1.51h6.03
					c0.83,0,1.51,0.67,1.51,1.51v6.03C220.68,253.7,220.01,254.37,219.18,254.37L219.18,254.37z"/>
				<path class="st16" d="M234.25,254.37h-9.04c-0.83,0-1.51-0.67-1.51-1.51v-6.03c0-0.83,0.68-1.51,1.51-1.51h9.04
					c0.83,0,1.51,0.67,1.51,1.51v6.03C235.75,253.7,235.08,254.37,234.25,254.37L234.25,254.37z"/>
			</g>
			<g>
				<path class="st16" d="M192.05,295.07h-6.03c-0.83,0-1.51-0.67-1.51-1.51v-6.03c0-0.83,0.68-1.51,1.51-1.51h6.03
					c0.83,0,1.51,0.67,1.51,1.51v6.03C193.55,294.39,192.88,295.07,192.05,295.07L192.05,295.07z"/>
				<path class="st16" d="M207.12,295.07h-9.04c-0.83,0-1.51-0.67-1.51-1.51v-6.03c0-0.83,0.68-1.51,1.51-1.51h9.04
					c0.83,0,1.51,0.67,1.51,1.51v6.03C208.63,294.39,207.95,295.07,207.12,295.07L207.12,295.07z"/>
				<path class="st16" d="M219.18,295.07h-6.03c-0.83,0-1.51-0.67-1.51-1.51v-6.03c0-0.83,0.68-1.51,1.51-1.51h6.03
					c0.83,0,1.51,0.67,1.51,1.51v6.03C220.68,294.39,220.01,295.07,219.18,295.07L219.18,295.07z"/>
				<path class="st16" d="M234.25,295.07h-9.04c-0.83,0-1.51-0.67-1.51-1.51v-6.03c0-0.83,0.68-1.51,1.51-1.51h9.04
					c0.83,0,1.51,0.67,1.51,1.51v6.03C235.75,294.39,235.08,295.07,234.25,295.07L234.25,295.07z"/>
			</g>
			<g>
				<path class="st16" d="M192.05,281.5h-6.03c-0.83,0-1.51-0.67-1.51-1.51v-6.03c0-0.83,0.68-1.51,1.51-1.51h6.03
					c0.83,0,1.51,0.67,1.51,1.51v6.03C193.55,280.83,192.88,281.5,192.05,281.5L192.05,281.5z"/>
				<path class="st16" d="M207.12,281.5h-9.04c-0.83,0-1.51-0.67-1.51-1.51v-6.03c0-0.83,0.68-1.51,1.51-1.51h9.04
					c0.83,0,1.51,0.67,1.51,1.51v6.03C208.63,280.83,207.95,281.5,207.12,281.5L207.12,281.5z"/>
				<path class="st16" d="M219.18,281.5h-6.03c-0.83,0-1.51-0.67-1.51-1.51v-6.03c0-0.83,0.68-1.51,1.51-1.51h6.03
					c0.83,0,1.51,0.67,1.51,1.51v6.03C220.68,280.83,220.01,281.5,219.18,281.5L219.18,281.5z"/>
				<path class="st16" d="M234.25,281.5h-9.04c-0.83,0-1.51-0.67-1.51-1.51v-6.03c0-0.83,0.68-1.51,1.51-1.51h9.04
					c0.83,0,1.51,0.67,1.51,1.51v6.03C235.75,280.83,235.08,281.5,234.25,281.5L234.25,281.5z"/>
			</g>
		</g>
	</g>
</g>
</svg>
