<?xml version="1.0" encoding="utf-8"?>
<!-- Generator: Adobe Illustrator 26.1.0, SVG Export Plug-In . SVG Version: 6.00 Build 0)  -->
<svg version="1.1" id="Layer_1" xmlns="http://www.w3.org/2000/svg" xmlns:xlink="http://www.w3.org/1999/xlink" x="0px" y="0px"
	 viewBox="0 0 72 72" style="enable-background:new 0 0 72 72;" xml:space="preserve">
<style type="text/css">
	.st0{fill:#7B7B7B;}
	.st1{fill-rule:evenodd;clip-rule:evenodd;fill:#7B7B7B;}
</style>
<g id="XMLID_00000125564679075785913700000007866206442018074013_">
	<g id="XMLID_00000159460488653032348440000010506360302143606967_">
		<path class="st0" d="M57.6,3C63.9,3,69,8.1,69,14.4v43.1C69,63.9,63.9,69,57.6,69h-43C8.3,69,3.1,63.9,3.1,57.6V14.5
			C3.1,8.1,8.3,3,14.6,3H57.6 M57.6,0h-43C6.6,0,0.1,6.6,0.1,14.5v43.1c0,8,6.5,14.4,14.4,14.4h43c8,0,14.4-6.5,14.4-14.4V14.4
			C72,6.6,65.5,0,57.6,0L57.6,0z"/>
	</g>
	<path id="XMLID_00000106849889538399639880000009622999945554941590_" class="st1" d="M30.9,60.5h9.5V38.6h7l1.4-8.9h-8.4V23
		c0-2.5,2.4-3.9,4.6-3.9h4.1v-7.3l-7.3-0.3c-7-0.4-10.9,5.1-10.9,11.7v6.6h-8v8.9h8C30.9,38.6,30.9,60.5,30.9,60.5z"/>
</g>
</svg>
