<?xml version="1.0" encoding="utf-8"?>
<!-- Generator: Adobe Illustrator 26.1.0, SVG Export Plug-In . SVG Version: 6.00 Build 0)  -->
<svg version="1.1" id="a" xmlns="http://www.w3.org/2000/svg" xmlns:xlink="http://www.w3.org/1999/xlink" x="0px" y="0px"
	 viewBox="0 0 133.8 134" style="enable-background:new 0 0 133.8 134;" xml:space="preserve">
<style type="text/css">
	.st0{fill-rule:evenodd;clip-rule:evenodd;fill:#73AA75;}
	.st1{fill-rule:evenodd;clip-rule:evenodd;fill:#FFFFFF;}
</style>
<path class="st0" d="M26.9,0h80c14.9,0,26.9,12.3,26.9,26.9v80.2c0,14.9-12,26.9-26.9,26.9h-80C12,134,0,122,0,107.1V26.9
	C0,12.3,12,0,26.9,0L26.9,0L26.9,0z"/>
<path class="st1" d="M46.7,23.3H87c13,0,23.6,10.7,23.6,23.6v40.1c0,13-10.7,23.6-23.6,23.6H46.7c-13,0-23.6-10.7-23.6-23.6V46.9
	C23.1,34,33.7,23.3,46.7,23.3L46.7,23.3L46.7,23.3z M90.4,38.6L90.4,38.6c2.7,0,5,2.3,5,5l0,0c0,2.7-2.3,5-5,5l0,0c-2.9,0-5-2.3-5-5
	l0,0C85.4,40.9,87.5,38.6,90.4,38.6L90.4,38.6z M66.8,43.2H67c13,0,23.8,10.9,23.8,23.8l0,0c0,13.2-10.9,23.8-23.8,23.8h-0.2
	c-13,0-23.6-10.7-23.6-23.8l0,0C43.1,54,53.8,43.2,66.8,43.2L66.8,43.2z M66.8,51.3H67c8.6,0,15.7,7.1,15.7,15.7l0,0
	c0,8.8-7.1,15.9-15.7,15.9h-0.2c-8.6,0-15.7-7.1-15.7-15.9l0,0C51.1,58.4,58.2,51.3,66.8,51.3L66.8,51.3z M46.9,30.8h39.9
	c9,0,16.3,7.3,16.3,16.3v39.7c0,9-7.3,16.3-16.3,16.3H46.9c-9,0-16.3-7.3-16.3-16.3V47.1C30.6,38.2,37.9,30.8,46.9,30.8L46.9,30.8
	L46.9,30.8z"/>
</svg>
