<?xml version="1.0" encoding="utf-8"?>
<!-- Generator: Adobe Illustrator 26.1.0, SVG Export Plug-In . SVG Version: 6.00 Build 0)  -->
<svg version="1.1" id="a" xmlns="http://www.w3.org/2000/svg" xmlns:xlink="http://www.w3.org/1999/xlink" x="0px" y="0px"
	 viewBox="0 0 134 134" style="enable-background:new 0 0 134 134;" xml:space="preserve">
<style type="text/css">
	.st0{fill-rule:evenodd;clip-rule:evenodd;fill:#73AA75;}
	.st1{fill-rule:evenodd;clip-rule:evenodd;fill:#FFFFFF;}
</style>
<path class="st0" d="M26.9,0h80.1C122,0,134,12.1,134,26.9v80.1c0,14.9-12,26.9-26.9,26.9H26.9C12.1,134,0,122,0,107.1V26.9
	C0,12.1,12.1,0,26.9,0L26.9,0z"/>
<path class="st1" d="M30,53.6h15v50.2H30V53.6z M37.3,28.1c5,0,9.1,4.1,9.1,9c0,5-4.1,9.1-9.1,9.1s-8.9-4.1-8.9-9.1
	S32.4,28.1,37.3,28.1C37.3,28.1,37.3,28.1,37.3,28.1z M53.8,53.6h14.8v7C71.7,56,76.9,53,82.8,53h4.1c9.4,0,17,7.8,17,17v33.8H89.1
	v-4.6l0,0V76.7l0,0c-0.2-5.7-4.1-10.2-9.8-10.2l0,0c-5.7,0-10.5,4.4-10.7,10.2l0,0v27.2H53.8V53.6L53.8,53.6z"/>
</svg>
