<?xml version="1.0" encoding="utf-8"?>
<!-- Generator: Adobe Illustrator 26.1.0, SVG Export Plug-In . SVG Version: 6.00 Build 0)  -->
<svg version="1.1" id="a" xmlns="http://www.w3.org/2000/svg" xmlns:xlink="http://www.w3.org/1999/xlink" x="0px" y="0px"
	 viewBox="0 0 133.8 134" style="enable-background:new 0 0 133.8 134;" xml:space="preserve">
<style type="text/css">
	.st0{fill-rule:evenodd;clip-rule:evenodd;fill:#669966;}
	.st1{fill-rule:evenodd;clip-rule:evenodd;fill:#FFFFFF;}
</style>
<path class="st0" d="M26.9,0h80c14.9,0,26.9,12.3,26.9,26.9v80.2c0,14.9-12,26.9-26.9,26.9h-80C12,134,0,122,0,107.1V26.9
	C0,12.3,12,0,26.9,0L26.9,0L26.9,0z"/>
<path class="st1" d="M52.5,115.4h18.1V73.7h13.3l2.7-16.8h-16V44.2c0-4.7,4.5-7.4,8.8-7.4h7.8v-14l-14-0.6
	c-13.3-0.8-20.7,9.7-20.7,22.2v12.5H37.3v16.8h15.2L52.5,115.4L52.5,115.4z"/>
</svg>
