<?xml version="1.0" encoding="utf-8"?>
<!-- Generator: Adobe Illustrator 26.1.0, SVG Export Plug-In . SVG Version: 6.00 Build 0)  -->
<svg version="1.1" id="Layer_1" xmlns="http://www.w3.org/2000/svg" xmlns:xlink="http://www.w3.org/1999/xlink" x="0px" y="0px"
	 viewBox="0 0 72 72" style="enable-background:new 0 0 72 72;" xml:space="preserve">
<style type="text/css">
	.st0{fill:#7B7B7B;}
	.st1{fill-rule:evenodd;clip-rule:evenodd;fill:#7B7B7B;}
</style>
<g id="XMLID_00000097463535308046219890000008599051626491996063_">
	<path class="st0" d="M57.4,3c6.3,0,11.4,5.1,11.4,11.4v43.1c0,6.3-5.1,11.4-11.4,11.4h-43C8.1,69,3,63.9,3,57.6V14.4
		C3,8.1,8.1,3,14.4,3H57.4 M57.4,0h-43C6.5,0,0,6.6,0,14.4v43.1C0,65.5,6.5,72,14.4,72h43c8,0,14.4-6.5,14.4-14.4V14.4
		C71.9,6.6,65.4,0,57.4,0L57.4,0z"/>
</g>
<path id="XMLID_00000112629356483371627540000002203298347892447389_" class="st1" d="M25.1,12.5h21.7c7,0,12.7,5.7,12.7,12.7v21.6
	c0,7-5.7,12.7-12.7,12.7H25.1c-7,0-12.7-5.7-12.7-12.7V25.2C12.4,18.3,18.1,12.5,25.1,12.5L25.1,12.5z M48.6,20.7L48.6,20.7
	c1.5,0,2.7,1.2,2.7,2.7l0,0c0,1.5-1.2,2.7-2.7,2.7l0,0c-1.6,0-2.7-1.2-2.7-2.7l0,0C45.9,22,47,20.7,48.6,20.7L48.6,20.7z M35.9,23.2
	H36c7,0,12.8,5.8,12.8,12.8l0,0c0,7.1-5.8,12.8-12.8,12.8h-0.1c-7,0-12.7-5.7-12.7-12.8l0,0C23.2,29,28.9,23.2,35.9,23.2L35.9,23.2z
	 M35.9,27.6H36c4.6,0,8.4,3.8,8.4,8.4l0,0c0,4.7-3.8,8.5-8.4,8.5h-0.1c-4.6,0-8.4-3.8-8.4-8.5l0,0C27.5,31.4,31.3,27.6,35.9,27.6
	L35.9,27.6z M25.2,16.6h21.5c4.8,0,8.8,3.9,8.8,8.8v21.3c0,4.8-3.9,8.8-8.8,8.8H25.2c-4.8,0-8.8-3.9-8.8-8.8V25.3
	C16.4,20.5,20.4,16.6,25.2,16.6L25.2,16.6z"/>
</svg>
